 http://imgr.us/images/lup5fpo105ngg65zk44.jpg

Info:
Info:
Format : MPEG-PS
File size : 1.13GiB
Overall bit rate : 1 280 Kbps
Writing library : encoded by TMPGEnc 4.0 XPress Version. 4.2.3.193



Video
ID : 224 (0xE0)
Format : MPEG Video
Format version : Version 2
Format settings, BVOP : Yes
Format settings, Matrix : Custom
Bit rate mode : Variable
Bit rate : 1 100 Kbps
Width : 400 pixels
Height : 288 pixels
Display aspect ratio : 1.389
Frame rate : 29.970 fps
Color space : YUV
Bit depth : 8 bits
Scan type : Progressive
Compression mode : Lossy
Bits/(Pixel*Frame) : 0.319
Stream size : 901 MiB (88%)
Writing library : TMPGEnc XPress 4.2.3.193



Audio
ID : 192 (0xC0)
Format : MPEG Audio
Format version : Version 1
Format profile : Layer 2
Bit rate mode : Constant
Bit rate : 128 Kbps
Channel(s) : 2 channels
Sampling rate : 48.0 KHz
Compression mode : Lossy
Stream size : 102 MiB (10%)

Screens: 
http://imgr.us/images/bjqs7e1zdmmwtde5m2e.png 
http://imgr.us/images/nuif8gt60rc1odcfpf.png 
http://imgr.us/images/ttb3shqjz9p1t59xw0n.png 
http://imgr.us/images/yflx4eedco0moey6rp8m.png 
http://imgr.us/images/t16a72jvwskoz61irz2.png



